<?xml version="1.0" encoding="UTF-8"?>
<svg width="512px" height="512px" viewBox="0 0 512 512" version="1.1" xmlns="http://www.w3.org/2000/svg" xmlns:xlink="http://www.w3.org/1999/xlink">
    <title>512x512备份 4@2x</title>
    <g id="512x512备份-4" stroke="none" stroke-width="1" fill="none" fill-rule="evenodd">
        <g id="Ingenious-idea" transform="translate(-83, -62)">
            <g id="编组" transform="translate(185.377, 135.6113)">
                <path d="M0.855627654,41.1914692 C0.879249974,41.3603777 0.839879442,41.5155379 0.737516059,41.6569498 C0.664897514,41.7525886 0.625503999,41.8705006 0.625310043,41.9928029 C0.076091124,63.2458228 0.1705804,84.4517054 0.0170353263,105.710617 C-0.0420204715,113.684674 0.0524688049,121.625341 0.300503156,129.532619 C0.307107973,129.733678 0.416066809,129.917481 0.589484299,130.020101 C0.762901789,130.122722 0.976809829,130.129978 1.15681222,130.039345 C6.70805721,127.262173 12.4738716,125.023153 18.4542554,123.322283 C18.6228545,123.27377 18.8043103,123.301789 18.9503241,123.398881 C31.1512519,131.671473 43.3561168,139.942101 55.5649187,148.210765 C58.0511678,149.890031 60.6673396,151.127384 63.3307561,152.423659" id="路径" stroke="#DBCCDB"></path>
                <path d="M63.3307561,152.423659 C71.0828138,145.651604 78.8230604,139.015068 86.5514958,132.514052 C99.6441661,121.501605 112.110845,109.599443 125.486983,98.9464182 C127.798033,97.1041363 130.107115,95.248106 132.414228,93.3783273 C132.635195,93.1973236 132.954951,93.2023085 133.170143,93.3901116 C136.754829,96.4776033 140.191877,99.9893304 144.024598,102.735077 C145.134847,103.528554 146.239191,104.322032 147.337628,105.115509 C147.483618,105.221684 147.573485,105.388157 147.581544,105.567345 C147.589603,105.746534 147.514967,105.918719 147.378967,106.034686 L79.8781906,164.479018 C79.7574416,164.581787 79.6842015,164.729596 79.6752917,164.888496 C79.6663819,165.047397 79.7225682,165.203732 79.830946,165.321597 C87.0515015,173.099248 94.5161544,180.627464 102.224905,187.906245 C102.442731,188.111967 102.780522,188.122103 103.010347,187.929813 C105.86471,185.545453 110.455314,181.530928 116.782159,175.886239 C126.294079,167.393673 142.376941,153.778856 165.030745,135.041788 C167.932354,132.641715 170.896955,130.363414 173.924549,128.206883" id="路径" stroke="#E4DFE4"></path>
                <path d="M173.924549,128.206883 C176.211976,128.030118 178.349796,127.152186 180.338008,125.573088 C191.909008,116.381319 205.263492,106.093608 220.401461,94.7099554 C222.740071,92.9481996 225.999951,91.0980615 227.61808,88.9415311 C228.456672,87.8259488 229.108255,86.5807391 229.572827,85.2059018" id="路径" stroke="#DBCCDB"></path>
                <path d="M229.572827,85.2059018 L229.673237,111.479042 C229.674433,111.647222 229.602842,111.807821 229.476478,111.920389 C229.350115,112.032957 229.181025,112.086764 229.011797,112.068258 L227.352329,111.867924 C227.200862,111.849075 227.048444,111.889205 226.927127,111.979875 C218.488054,118.343408 210.078508,125.467029 202.289048,131.753963 C177.300572,151.92479 152.560129,172.254705 128.067722,192.743708 C127.93991,192.850314 127.863172,193.005822 127.855939,193.171898 C127.849676,193.337974 127.913545,193.499168 128.032288,193.615748 L179.127364,243.787487 C179.340288,244.00147 179.683361,244.016796 179.918712,243.82284 C189.332206,235.966627 198.887434,228.289143 208.584396,220.790388 C210.887572,219.010956 213.921072,216.51268 217.684895,213.295561 C221.212494,210.282703 224.846394,207.403401 228.586595,204.657655 C229.216523,204.198066 229.531488,204.357155 229.531488,205.13492 L229.50196,215.746699" id="路径" stroke="#E4DFE4"></path>
                <path d="M229.50196,215.746699 L229.088569,216.312347 C229.000922,216.433655 228.870232,216.51778 228.722423,216.548033 C227.277525,216.830857 225.809004,217.681292 224.316861,219.099338 C216.580551,226.444897 204.915063,237.001683 189.320395,250.769696 C184.899084,254.670306 180.306512,258.504138 175.542677,262.271192 C174.700148,262.935042 174.278883,263.777621 174.278883,264.798928 L174.361561,298.195689 C174.361735,298.398017 174.464337,298.584951 174.633218,298.690631 C190.318438,308.613028 205.78712,319.046078 221.039264,329.989783 C223.14165,331.494248 225.915304,333.165657 229.360226,335.004011" id="路径" stroke="#DBCCDB"></path>
                <path d="M229.360226,335.004011 C229.931099,335.907475 230.751974,336.589002 231.822853,337.04859 C232.00333,337.125968 232.211365,337.108303 232.377977,337.001453 L283.89235,303.911084 C284.067566,303.797842 284.169839,303.600715 284.16135,303.392596 C284.15286,303.184477 284.034871,302.996294 283.851011,302.897633 C282.319497,302.076659 280.856882,301.232116 279.463165,300.364004 C266.134271,292.03249 252.149858,283.877741 239.777669,274.173354 C239.635757,274.061341 239.55307,273.889828 239.553257,273.707874 C239.616249,246.674645 239.559162,219.804433 239.381995,193.097237 C239.366247,190.657883 239.244198,188.194961 239.015849,185.708469 C238.997391,185.516849 239.074549,185.327694 239.222544,185.201744 C245.049383,180.350532 251.05142,175.729115 257.228657,171.337492 C263.051559,167.195304 268.449258,162.676017 274.384366,158.527937 C277.297785,156.489249 280.19152,154.421101 283.065568,152.323493 C283.231492,152.202412 283.32237,152.003957 283.305498,151.799548 C283.288626,151.59514 283.166432,151.414192 282.98289,151.321825 C280.459239,150.076616 278.008424,148.709635 275.630443,147.220882 C263.57125,139.682846 251.592765,132.036787 239.694991,124.282705 C239.529064,124.172409 239.429345,123.98669 239.429239,123.787763 L239.358372,69.3147472 C239.358001,69.1330098 239.44314,68.960941 239.58869,68.8492666 C253.695152,58.0351896 267.892165,47.8849625 282.179731,38.3985855 C282.98289,37.864363 283.750616,37.3046078 284.482908,36.71932 C285.085277,36.2361629 285.677803,35.760862 286.260487,35.2934173 C286.411905,35.1729565 286.494505,34.9860804 286.481545,34.7932932 C286.468585,34.6005061 286.361711,34.4263097 286.195526,34.3271031 C268.128389,23.544451 250.336845,12.3218509 232.820896,0.659302826 C232.604408,0.515359663 232.31901,0.529716746 232.118132,0.694655784 C231.783482,0.969623235 231.440959,1.23280637 231.090561,1.48420518 C213.964379,13.9991523 196.749614,26.3903641 179.446266,38.6578405 C178.918701,39.0310106 178.591925,39.3354389 178.465939,39.5711252" id="路径" stroke="#E4DFE4"></path>
                <path d="M178.465939,39.5711252 L174.834008,41.3918026 C174.638501,41.4887401 174.513286,41.6886294 174.509201,41.9103126 C174.119433,65.2864741 174.074157,88.460338 174.373373,111.431905 C174.37731,111.486898 174.481642,113.287935 174.686368,116.835015 C174.788732,118.638016 174.73755,120.448873 174.532823,122.267586" id="路径" stroke="#DBCCDB"></path>
                <path d="M174.532823,122.267586 C167.475655,115.992436 163.070093,110.011894 156.7275,102.77043 C137.227276,80.5019944 118.164064,59.4552001 99.5378657,39.6300468 C98.8449443,38.8915628 98.193362,38.3023469 97.5831188,37.8623989 C97.4242607,37.7462263 97.3339071,37.5586828 97.3422053,37.3623441 C97.3505035,37.1660055 97.4563611,36.9867172 97.6244579,36.8843004 L100.848904,34.9281034 C101.021928,34.8231555 101.128997,34.6370799 101.132591,34.4350835 C101.136185,34.233087 101.035803,34.0433373 100.866621,33.9323284 C100.295748,33.5591583 99.7248757,33.215449 99.154003,32.9012005 C98.3193477,32.4337558 97.6618599,32.0370171 97.1815394,31.7109843 C82.6853096,21.8160841 68.1024646,12.0488475 53.4330044,2.40927425 C52.6928384,1.92218905 52.1475565,1.24262663 51.7971588,0.370587002 C51.7215481,0.181800368 51.5537344,0.0452398436 51.3531804,0.00929404959 C51.1526264,-0.0266517444 50.9476669,0.0430957069 50.810927,0.193822212 C50.5747038,0.453077238 50.3502918,0.663230932 50.1376909,0.824283296 C37.4564426,10.3538695 22.5369795,21.884826 5.37930176,35.4171527 C3.32809705,37.0355325 1.64106976,38.5203568 0.318219895,39.8716254 C0.207298695,39.9866263 0.147324542,40.1412608 0.151536055,40.3008014 C0.156208099,40.4603421 0.224693505,40.6114164 0.341842214,40.7200964 L0.855627654,41.1914692" id="路径" stroke="#E4DFE4"></path>
                <path d="M174.532823,122.267586 C174.780858,124.180574 174.578099,126.16034 173.924549,128.206883" id="路径" stroke="#9F9F9F"></path>
                <path d="M63.3307561,152.423659 C63.3504414,124.157005 63.4370565,95.9021357 63.5906016,67.6590504 C63.6024128,65.3316473 64.3347047,62.6919598 61.0630135,65.6498239 C58.0236084,68.3955703 54.8129415,70.8309963 51.4310129,72.9561019 C51.2395121,73.0755182 50.9965221,73.0755182 50.8050214,72.9561019 C34.6886942,62.9983521 18.867646,52.5751216 2.77494108,42.5761267 C2.16666636,42.1990285 1.57020281,41.5685674 0.855627654,41.1914692" id="路径" stroke="#9F9F9F"></path>
                <path d="M229.360226,335.004011 C229.714561,327.397233 229.377943,317.392346 229.389754,312.295627 C229.44881,280.112651 229.486212,247.929675 229.50196,215.746699" id="路径" stroke="#9F9F9F"></path>
                <path d="M229.572827,85.2059018 L229.696928,72.5495429 C229.700206,72.3512138 229.602323,72.1647717 229.436998,72.0546015 C212.610033,60.9694851 195.61968,50.1416597 178.465939,39.5711252" id="路径" stroke="#9F9F9F"></path>
                <path d="M254.506185,113.871259 L286.467182,133.71016 C287.081363,134.095115 287.382547,133.924242 287.370736,133.197542 C287.331366,131.20992 287.280184,129.224263 287.217191,127.240569 C287.130576,124.612666 287.091205,122.238125 287.099079,120.116948 C287.169946,92.887314 287.150261,76.3008845 287.040024,70.3576595 C286.878604,61.5626292 286.902227,52.7715269 287.110891,43.9843528 C287.126639,43.3401434 286.874667,43.2124799 286.354976,43.6013625 C276.27612,51.1433268 266.427582,58.9700789 256.809361,67.0816187 C256.581012,67.2740959 256.065258,67.4724653 255.262099,67.6767268 C255.000341,67.7433639 254.816197,67.975439 254.813275,68.2423742 C254.647919,83.3027343 254.40579,98.3513101 254.228622,113.364533 C254.228622,113.569629 254.333065,113.760667 254.506185,113.871259" id="路径" stroke="#E4DFE4"></path>
                <path d="M254.81918,270.461294 C255.244382,270.61449 255.72864,270.685196 256.106597,270.897314 C266.539788,276.895532 276.659983,283.278705 286.467182,290.046833 C287.081363,290.471068 287.390421,290.31198 287.394358,289.569568 C287.40617,287.464103 287.368768,285.401847 287.282152,283.3828 C287.156167,280.487786 287.095142,278.282154 287.099079,276.765905 C287.158135,241.183152 286.738839,205.559155 287.199474,169.982295 C287.215222,168.697804 286.740808,168.479794 285.77623,169.328265 C277.453299,176.607047 269.392183,183.595148 261.59288,190.292569 C260.61846,191.135148 257.618425,194.95916 255.203043,195.542484 C254.936032,195.605382 254.747633,195.839735 254.748313,196.108131 L254.423504,269.907431 C254.422711,270.157605 254.581894,270.38043 254.81918,270.461294" id="路径" stroke="#E4DFE4"></path>
                <line x1="6.02300996" y1="211.180275" x2="0.43633149" y2="215.823297" id="路径" stroke="#E4DFE4"></line>
                <path d="M0.43633149,215.823297 C0.619404463,225.969596 0.111524603,236.404611 0.0938078634,246.097214 C0.0505002783,265.124961 0.10168197,284.095751 0.247352938,303.009584 C0.247851124,303.211356 0.352825593,303.398544 0.524915187,303.504525 C8.98761101,308.825145 17.2849506,314.664276 25.5055176,319.743317 C34.7359388,325.441036 43.9840768,330.99145 53.0018971,337.030914 C55.8542921,338.939973 58.7007816,340.477827 61.6476659,342.06871 C61.7888766,342.14427 61.9547992,342.159334 62.1073605,342.110448 C62.2599217,342.061562 62.3860236,341.952921 62.4567303,341.809455 L63.4547733,339.77666" id="路径" stroke="#DBCCDB"></path>
                <path d="M63.4547733,339.77666 C64.4469107,338.610013 65.5256633,337.531747 66.691031,336.541864 C76.1084622,328.540312 85.6164456,320.648746 95.2149813,312.867167 C114.437643,297.288297 132.53234,280.442612 151.973509,265.246733 C152.206636,265.065532 152.539676,265.085671 152.753045,265.29387 L162.308273,274.750786 C162.535576,274.973189 162.898662,274.975795 163.129149,274.756678 L171.278849,267.008488 C171.394343,266.898955 171.460115,266.747052 171.461242,266.587277 C171.46234,266.427503 171.398697,266.273418 171.284754,266.160017 C168.957956,263.877787 166.705962,261.526816 164.528771,259.107102 C159.638951,253.680423 154.755037,249.037401 150.284513,244.288321 C142.323791,235.835036 130.443733,223.086366 114.644339,206.042312 C114.262445,205.633789 113.912047,205.229194 113.593146,204.828527 C113.469332,204.67442 113.276364,204.592456 113.07921,204.61023 C112.882055,204.628005 112.70694,204.743154 112.612819,204.91691 C111.908087,206.217113 111.079337,207.273774 110.12657,208.086892" id="路径" stroke="#E4DFE4"></path>
                <path d="M110.12657,208.086892 C107.571423,205.616113 104.852888,203.465474 101.970965,201.634977 C98.3095051,199.313466 94.9433246,196.573612 91.3645433,194.181395 C81.4037987,187.538967 71.5217952,180.782624 61.7185328,173.912366 C61.439002,173.71596 61.1752195,173.448849 60.9271851,173.111032 C60.7618289,172.88713 60.58663,172.671084 60.4015885,172.462894 C60.1815825,172.21887 59.8090338,172.195144 59.5689018,172.409865 C57.289348,174.417127 54.8975882,176.277086 52.3936224,177.98974 C37.3639218,188.265667 22.5940668,198.924583 7.58208302,209.229971 C6.83207439,209.748481 6.46002286,210.426079 6.02300996,211.180275" id="路径" stroke="#DBCCDB"></path>
                <path d="M110.12657,208.086892 C95.9177453,219.945845 81.569155,231.614285 67.0807993,243.092212 C66.0689766,243.893546 65.135895,244.553468 64.2815544,245.071978 C64.098867,245.181293 63.9902475,245.379976 63.9980866,245.590488 C64.1221038,250.746128 63.7028076,256.502768 63.6909965,261.022054 C63.6161925,287.273589 63.5374514,313.525125 63.4547733,339.77666" id="路径" stroke="#9F9F9F"></path>
                <path d="M0.43633149,215.823297 C2.75131876,217.096004 5.4856022,218.969711 7.12735338,219.983162 C19.1688305,227.413175 31.2870802,234.707669 43.222257,242.302663 C47.4939597,245.024841 52.0471617,247.674348 56.881863,250.251186 C57.0801313,250.359379 57.3223143,250.343271 57.5019489,250.209941 L61.6949105,247.20494 C61.854366,247.08971 61.9457779,246.902773 61.9390526,246.706461 C61.9315544,246.510149 61.8268544,246.330285 61.659477,246.226841 L6.02300996,211.180275" id="路径" stroke="#9F9F9F"></path>
            </g>
            <path d="M55,0 L582,0 C612.375661,-1.26853458e-14 637,24.6243388 637,55 L637,582 C637,612.375661 612.375661,637 582,637 L55,637 C24.6243388,637 -3.38548173e-15,612.375661 0,582 L0,55 C-1.0825373e-14,24.6243388 24.6243388,-1.52550891e-15 55,0 Z M186.994889,177.091898 C187.018481,177.260978 186.97916,177.416296 186.876926,177.557852 C186.804399,177.653588 186.765055,177.77162 186.764861,177.894046 C186.216333,199.168667 186.310704,220.396102 186.157352,241.67662 C186.09837,249.658781 186.192741,257.607519 186.440463,265.522833 C186.447059,265.724097 186.555881,265.908086 186.72908,266.010811 C186.90228,266.113536 187.115919,266.120799 187.295694,266.030074 C192.839954,263.25008 198.598512,261.008784 204.57137,259.306185 C204.739757,259.257624 204.920985,259.285671 205.066815,259.382861 C217.252389,267.663861 229.441895,275.942895 241.635333,284.219963 C244.118454,285.900935 246.731333,287.139546 249.391398,288.437139 C257.133701,281.658201 264.864207,275.01492 272.582917,268.507296 C285.659111,257.483657 298.110102,245.569398 311.469407,234.905546 C313.777549,233.061392 316.083725,231.203475 318.387935,229.331796 C318.608624,229.150609 318.927978,229.155599 319.142898,229.343593 C322.723074,232.434222 326.155796,235.949519 329.983694,238.698056 C331.092546,239.49234 332.1955,240.286623 333.292556,241.080907 C333.438362,241.18719 333.528116,241.353832 333.536164,241.533203 C333.544213,241.712573 333.469671,241.884933 333.333843,242.001019 L265.918009,300.50475 C265.797412,300.607624 265.724264,300.755583 265.715366,300.914645 C265.706467,301.073706 265.762583,301.230201 265.870824,301.348185 C273.082293,309.133741 280.537552,316.669608 288.236602,323.955787 C288.454154,324.161718 288.791521,324.171864 289.021056,323.97938 C291.871827,321.592596 296.456654,317.573991 302.775537,311.923565 C312.275488,303.422367 328.338111,289.793713 350.963407,271.037602 C353.861364,268.63509 356.822235,266.354472 359.846019,264.19575 C362.130568,264.018806 364.265698,263.139981 366.251407,261.559278 C377.807846,252.358167 391.145525,242.06 406.264444,230.664778 C408.600111,228.901231 411.855889,227.049213 413.471981,224.890491 C414.309519,223.773775 414.960281,222.527299 415.424269,221.151065 L415.524537,247.450907 C415.525747,247.619258 415.454246,247.780021 415.328041,247.892703 C415.201837,248.005386 415.03296,248.059247 414.863944,248.040722 L413.206565,247.840185 C413.055289,247.821316 412.903062,247.861487 412.781898,247.95225 C404.353444,254.32225 395.954481,261.453111 388.174824,267.746435 C363.217793,287.937762 338.508485,308.28834 314.046898,328.798167 C313.919247,328.904881 313.842606,329.060547 313.835866,329.226792 C313.829127,329.393036 313.892916,329.554395 314.011509,329.671093 L365.042287,379.893824 C365.254943,380.108024 365.597584,380.123367 365.832639,379.929213 C375.234287,372.065015 384.777491,364.379728 394.46225,356.873352 C396.762528,355.092111 399.79221,352.591296 403.551296,349.370907 C407.074457,346.354988 410.703784,343.472759 414.439278,340.724222 C415.068414,340.264167 415.382981,340.423417 415.382981,341.201972 L415.355436,351.123776 C415.354172,351.579271 415.208986,352.022715 414.94062,352.390759 L414.94062,352.390759 L414.94062,352.390759 C414.853084,352.512191 414.722558,352.596402 414.574935,352.626685 C413.131855,352.909796 411.665182,353.761096 410.174917,355.180583 C402.448343,362.533608 390.797534,373.101123 375.222491,386.88313 C370.806744,390.787704 366.219951,394.625432 361.462111,398.396315 C360.620642,399.06084 360.199907,399.904275 360.199907,400.92662 L360.282481,434.357324 C360.282655,434.559857 360.385128,434.746981 360.553796,434.852769 C376.219278,444.78525 391.668494,455.228904 406.901444,466.183731 C409.001185,467.689725 411.771349,469.362833 415.211935,471.203056 C415.78209,472.107438 416.601932,472.789657 417.671463,473.249713 C417.851714,473.327169 418.059486,473.309487 418.225889,473.202528 L469.675435,440.078528 C469.850431,439.965171 469.952575,439.767844 469.944097,439.559513 C469.935618,439.351182 469.817777,439.162808 469.634148,439.064046 C468.104562,438.242238 466.643787,437.396836 465.251824,436.527843 C451.939704,428.187861 437.972889,420.024824 425.616269,410.310574 C425.474536,410.198447 425.391952,410.02676 425.392139,409.84462 C425.455052,382.783917 425.398037,355.886395 425.221093,329.152056 C425.205364,326.710222 425.083469,324.244796 424.855407,321.755778 C424.836973,321.563963 424.914033,321.374615 425.061843,321.248537 C430.881349,316.392395 436.875833,311.766281 443.045296,307.370194 C448.86087,303.223796 454.251778,298.699917 460.179417,294.54762 C463.08917,292.506861 465.979262,290.436611 468.849694,288.33687 C469.015409,288.215666 469.106173,288.01701 469.089322,287.812394 C469.072472,287.607777 468.950431,287.426646 468.76712,287.334185 C466.246645,286.08771 463.798914,284.71934 461.423926,283.229074 C449.379907,275.683377 437.416497,268.029546 425.533694,260.267583 C425.367977,260.157175 425.268383,259.971268 425.268278,259.772139 L425.1975,205.243759 C425.197129,205.061837 425.28216,204.889593 425.427528,204.777806 C439.516238,193.952738 453.695386,183.792194 467.964972,174.296176 C468.76712,173.76141 469.53388,173.201086 470.26525,172.615204 C470.866861,172.131556 471.458642,171.655772 472.040593,171.187852 C472.19182,171.067269 472.274316,170.880203 472.262697,170.687219 C472.248428,170.494236 472.141689,170.319863 471.975713,170.220556 C453.931312,159.426944 436.162157,148.192938 418.66825,136.518537 C418.452034,136.374448 418.166996,136.388819 417.96637,136.553926 C417.632142,136.829173 417.290049,137.092623 416.940093,137.344278 C399.835463,149.871944 382.642361,162.27575 365.360787,174.555694 C364.833886,174.929244 364.507522,175.233981 364.381694,175.469907 L360.754333,177.292435 C360.559073,177.389471 360.434015,177.589564 360.429935,177.811472 C360.040657,201.211392 359.995438,224.408809 360.294278,247.403722 C360.29821,247.458772 360.40241,249.261639 360.60688,252.812324 C360.709114,254.617157 360.657997,256.429855 360.453528,258.250417 C353.405241,251.968889 349.005222,245.982269 342.670611,238.733444 C323.194926,216.442377 304.155704,195.374191 285.552944,175.528889 C284.860895,174.789654 284.210133,174.19984 283.600657,173.759444 C283.441999,173.643154 283.351759,173.45542 283.360047,173.258881 C283.368335,173.062343 283.474059,172.882873 283.641944,172.780352 L286.862333,170.822167 C287.035139,170.717112 287.142074,170.530847 287.145663,170.328646 C287.149253,170.126444 287.048996,169.936501 286.880028,169.82538 C286.309873,169.45183 285.739719,169.107772 285.169565,168.793204 C284.33596,168.325284 283.679299,167.928142 283.199583,167.601778 C268.721596,157.696821 254.157102,147.919657 239.506102,138.270287 C238.766867,137.782707 238.222272,137.102454 237.872315,136.229528 C237.796799,136.040549 237.629197,135.90385 237.428895,135.867868 C237.228593,135.831885 237.023892,135.901704 236.887324,136.052583 C236.651398,136.312102 236.427269,136.522469 236.214935,136.683685 C223.549645,146.222957 208.648957,157.765633 191.51287,171.311713 C189.464247,172.931738 187.779343,174.418071 186.458157,175.770713 C186.347376,175.885831 186.287477,176.040622 186.291913,176.200325 C186.296349,176.360028 186.364749,176.511256 186.48175,176.620046 L186.994889,177.091898 Z M440.32625,249.845556 L472.247028,269.70462 C472.860435,270.089966 473.161241,269.91892 473.149444,269.191481 C473.110123,267.20184 473.059006,265.214164 472.996093,263.228454 C472.909586,260.59788 472.870265,258.220926 472.87813,256.097593 C472.948907,228.840284 472.929247,212.236997 472.819148,206.287731 C472.657932,197.483762 472.681525,188.683725 472.889926,179.88762 C472.905654,179.242756 472.654,179.114963 472.134963,179.504241 C462.06879,187.05387 452.232645,194.888577 442.626528,203.008361 C442.398466,203.201034 441.883361,203.399605 441.081213,203.604074 C440.819785,203.670779 440.635872,203.90309 440.632954,204.170296 C440.467806,219.245963 440.225981,234.309833 440.049037,249.338315 C440.049037,249.54362 440.153349,249.734852 440.32625,249.845556 Z M440.638852,406.594741 C441.063519,406.748093 441.547167,406.81887 441.924648,407.031204 C452.34471,413.035519 462.45217,419.425179 472.247028,426.200185 C472.860435,426.624852 473.169105,426.465602 473.173037,425.722435 C473.184833,423.61483 473.147478,421.550478 473.060972,419.52938 C472.935145,416.631423 472.874198,414.423549 472.87813,412.905759 C472.937111,377.286843 472.518343,341.626639 472.978398,306.01362 C472.994127,304.727824 472.520309,304.509593 471.556944,305.358926 C463.244488,312.645105 455.193515,319.640309 447.404028,326.344537 C446.430833,327.187972 443.434574,331.01587 441.022231,331.599787 C440.755556,331.662749 440.567394,331.897341 440.568074,332.166009 L440.243673,406.040315 C440.242881,406.290744 440.401864,406.513795 440.638852,406.594741 Z M192.155769,347.253472 L186.57612,351.901213 C186.758963,362.057824 186.251722,372.503444 186.234028,382.205898 C186.190775,401.252985 186.241892,420.243056 186.38738,439.176111 C186.387877,439.378089 186.49272,439.565467 186.664593,439.671556 C195.116639,444.997583 203.403537,450.842648 211.613759,455.926852 C220.832565,461.630361 230.069065,467.186417 239.075537,473.232019 C241.924343,475.143019 244.76725,476.682435 247.710426,478.274935 C247.851459,478.350571 248.017173,478.365652 248.169542,478.316715 C248.321911,478.267779 248.447855,478.159028 248.518472,478.015417 L249.515259,475.980556 C250.506148,474.812722 251.583543,473.733361 252.747444,472.742472 C262.153025,464.732787 271.649043,456.833201 281.2355,449.043713 C300.433972,433.449009 318.505898,416.586204 337.922602,401.37488 C338.155436,401.193495 338.488057,401.213654 338.701157,401.422065 L348.244361,410.888593 C348.471378,411.111221 348.834007,411.11383 349.064204,410.894491 L357.203648,403.138426 C357.318997,403.028782 357.385812,402.876724 357.385812,402.716787 C357.385812,402.55685 357.323346,402.402609 357.209546,402.289093 C354.885676,400.004543 352.636515,397.651182 350.462065,395.229009 C345.578398,389.796815 340.70063,385.149074 336.235731,380.395167 C328.285028,371.93329 316.41992,359.171664 300.640407,342.110287 C300.258994,341.701349 299.909037,341.296343 299.590537,340.895269 C299.466879,340.741004 299.274155,340.658957 299.077248,340.67675 C298.880341,340.694543 298.705446,340.809808 298.611444,340.983741 C297.907599,342.285265 297.079892,343.343 296.128324,344.156944 C293.576392,341.683654 290.861278,339.53083 287.982981,337.698472 C284.32613,335.374602 280.964185,332.631963 277.389907,330.237315 C267.441698,323.588136 257.57213,316.824926 247.781204,309.947685 C247.502025,309.75108 247.238574,309.483698 246.990852,309.145537 C246.825704,308.921407 246.650725,308.705142 246.465917,308.496741 C246.246188,308.252468 245.874108,308.228718 245.634278,308.443657 C243.357593,310.45296 240.968843,312.314809 238.468028,314.029204 C223.457241,324.315574 208.705972,334.985324 193.71288,345.301185 C192.963815,345.820222 192.592231,346.498509 192.155769,347.253472 Z" id="形状" fill-opacity="0" fill="#FFFFFF" fill-rule="nonzero"></path>
            <path d="M360.698605,257.747383 C360.946207,259.658313 360.743802,261.635949 360.09139,263.680291 C357.06907,265.834501 354.109633,268.110352 351.21308,270.507843 C328.598739,289.224754 312.543894,302.824925 303.048543,311.308355 C296.73272,316.946972 292.150113,320.957178 289.300722,323.338973 C289.071298,323.531056 288.734095,323.520931 288.516648,323.31543 C280.821327,316.044479 273.369677,308.524362 266.1617,300.755078 C266.053511,300.63734 265.997423,300.481173 266.006317,300.322443 C266.015211,300.163714 266.088324,300.016064 266.208863,299.913405 L333.592052,241.531946 C333.727814,241.416103 333.80232,241.244103 333.794275,241.065108 C333.786231,240.886112 333.69652,240.719819 333.550785,240.613758 C332.45426,239.821134 331.351841,239.02851 330.243526,238.235886 C326.417481,235.493094 322.986421,231.985144 319.407979,228.900974 C319.193163,228.713373 318.873963,228.708393 318.653381,228.889202 C316.350287,230.756969 314.045228,232.611003 311.738204,234.451303 C298.385367,245.092868 285.940405,256.982226 272.870543,267.982826 C265.15557,274.476849 257.428808,281.106245 249.690254,287.871015 C249.709905,259.63477 249.796369,231.410296 249.949647,203.197593 C249.961438,200.872694 250.692454,198.235846 247.426462,201.190528 C244.392352,203.933321 241.187278,206.366127 237.811241,208.488946 C237.620073,208.608234 237.377507,208.608234 237.18634,208.488946 C221.098087,198.541909 205.3046,188.129891 189.239929,178.141653 C188.632714,177.76496 188.037289,177.135177 187.323959,176.758485 L186.811068,176.287619 C186.694124,176.179056 186.625758,176.028144 186.621094,175.868775 C186.61689,175.709406 186.676759,175.554938 186.787487,175.440061 C188.108033,174.090246 189.792121,172.607019 191.839753,170.99038 C208.967541,157.472611 223.861014,145.954059 236.520172,136.434725 C236.732402,136.273846 236.956423,136.063918 237.192235,135.804942 C237.328737,135.654377 237.533339,135.584705 237.733544,135.620612 C237.933748,135.656519 238.10127,135.792933 238.176749,135.981516 C238.526536,136.852618 239.070868,137.531449 239.809745,138.018011 C254.45365,147.647214 269.011092,157.403943 283.482069,167.288199 C283.961552,167.613881 284.617895,168.010193 285.451096,168.477135 C286.020974,168.791045 286.590853,169.134385 287.160731,169.507153 C287.329618,169.618043 287.429825,169.807588 287.426238,170.009368 C287.42265,170.211147 287.315767,170.397022 287.143045,170.501857 L283.924215,172.45595 C283.756412,172.558256 283.650738,172.737352 283.642455,172.933479 C283.634171,173.129607 283.724367,173.316948 283.882948,173.432996 C284.492129,173.872471 285.142576,174.461053 285.83429,175.198742 C304.428041,195.002568 323.458044,216.026721 342.924299,238.271201 C349.255843,245.504875 353.653731,251.478984 360.698605,257.747383 Z" id="路径" fill="#333333" fill-rule="nonzero"></path>
            <path d="M414.630304,471.921455 C414.983251,464.300522 414.647951,454.277016 414.659716,449.170813 C414.718541,416.927947 414.755796,384.685081 414.771483,352.442215 L414.800895,341.810687 C414.800895,341.031475 414.487164,340.872091 413.859702,341.332534 C410.134146,344.08339 406.514473,346.968051 403.000685,349.986515 C399.251599,353.209621 396.229977,355.712546 393.935818,357.495289 C384.276823,365.007999 374.759006,372.69977 365.382369,380.570603 C365.14794,380.764921 364.80621,380.749565 364.59412,380.535184 L313.699097,330.270079 C313.580818,330.153283 313.517199,329.991788 313.523438,329.825403 C313.530643,329.659018 313.60708,329.503221 313.734391,329.396417 C338.130904,308.869285 362.774479,288.501537 387.665118,268.293174 C395.42408,261.994541 403.8007,254.857663 412.206731,248.482289 C412.327573,248.391449 412.479395,248.351244 412.630268,248.370129 L414.283239,248.570835 C414.451805,248.589376 414.620233,248.535469 414.746101,248.422691 C414.87197,248.309914 414.943281,248.149016 414.942074,247.980523 L414.842072,221.658491 L414.965604,208.978579 C414.968953,208.779881 414.871453,208.593092 414.706776,208.482717 C397.945693,197.376972 381.021863,186.528997 363.935284,175.938791 C364.060777,175.702666 364.386273,175.397671 364.911772,175.023807 C382.147373,162.733502 399.294737,150.319231 416.353864,137.780994 C416.70289,137.529127 417.044072,137.265455 417.377412,136.989975 C417.577504,136.824729 417.861784,136.810346 418.077424,136.954557 C435.524793,148.638808 453.246677,159.882292 471.243076,170.68501 C471.40861,170.784401 471.515066,170.958922 471.529297,171.152068 C471.540885,171.345214 471.458608,171.532438 471.307783,171.653123 C470.72738,172.121437 470.137174,172.597623 469.537163,173.081679 C468.807738,173.668056 468.043019,174.228853 467.243005,174.764069 C453.011379,184.2681 438.869951,194.437216 424.818721,205.271417 C424.67374,205.383299 424.588934,205.555688 424.589305,205.737764 L424.659894,260.31215 C424.659999,260.511447 424.759328,260.697511 424.924605,260.808013 C436.775796,268.576524 448.707381,276.236812 460.719359,283.788876 C463.088029,285.280399 465.529249,286.649924 468.043019,287.897451 C468.225842,287.98999 468.347558,288.171274 468.364364,288.376063 C468.38117,288.580852 468.290647,288.779676 468.125373,288.900982 C465.262577,291.002495 462.380173,293.074491 459.478161,295.116972 C453.566291,299.272772 448.189725,303.800469 442.389621,307.950365 C436.236571,312.350161 430.258033,316.980178 424.454008,321.840417 C424.306592,321.966602 424.229737,322.156109 424.248122,322.348086 C424.475577,324.839204 424.597148,327.30671 424.612834,329.750604 C424.789308,356.5075 424.846172,383.427715 424.783426,410.511251 C424.78324,410.693544 424.865604,410.865376 425.006959,410.977598 C437.330708,420.700044 451.260367,428.869968 464.537074,437.216986 C465.925334,438.086713 467.382223,438.932828 468.90774,439.75533 C469.090881,439.854175 469.208408,440.042708 469.216864,440.251215 C469.22532,440.459721 469.123448,440.657214 468.948917,440.770667 L417.63624,473.922615 C417.47028,474.029664 417.26306,474.047361 417.083289,473.96984 C416.016603,473.509396 415.198942,472.826601 414.630304,471.921455 Z" id="路径" fill="#333333" fill-rule="nonzero"></path>
            <path d="M364.115453,175.423828 C381.334997,185.958374 398.390527,196.749334 415.282042,207.79671 C415.448001,207.906505 415.546259,208.092312 415.542969,208.289966 L415.418392,220.903234 C414.952037,222.273391 414.297955,223.514361 413.456146,224.626145 C411.83181,226.775333 408.559425,228.619172 406.211844,230.37493 C391.015804,241.719825 377.61009,251.97251 365.994703,261.132984 C363.998864,262.706707 361.852843,263.58165 359.556641,263.757812 C360.212699,261.718237 360.416235,259.745212 360.167249,257.838737 C360.372761,256.026216 360.424139,254.221524 360.321383,252.424662 C360.115871,248.889658 360.011139,247.094753 360.007186,247.039947 C359.706823,224.14659 359.752272,201.051625 360.143536,177.755051 C360.147637,177.534123 360.273332,177.334914 360.469589,177.238307 L364.115453,175.423828 Z" id="路径" fill="#A7A7A7" fill-rule="nonzero"></path>
            <path d="M187.4738,177.912109 C188.185935,178.2875 188.780362,178.915106 189.38656,179.290497 C205.424314,189.244215 221.19134,199.620248 237.252637,209.532908 C237.443483,209.651783 237.685644,209.651783 237.876491,209.532908 C241.246871,207.417425 244.446575,204.993027 247.475602,202.259713 C250.736121,199.315243 250.00633,201.942978 249.994559,204.259842 C249.841538,232.375039 249.755219,260.501966 249.735601,288.640625 C247.081279,287.35022 244.47404,286.118469 241.996281,284.446807 C229.829167,276.215585 217.665977,267.982407 205.50671,259.747275 C205.361195,259.650623 205.180359,259.622731 205.012335,259.671023 C199.052372,261.364192 193.306246,263.593074 187.773956,266.35767 C187.594568,266.447892 187.381391,266.44067 187.208565,266.338514 C187.03574,266.236357 186.927153,266.053387 186.920571,265.853238 C186.673383,257.981765 186.579217,250.077055 186.638071,242.139106 C186.791092,220.976457 186.696925,199.866598 187.244269,178.709815 C187.244462,178.588066 187.283721,178.470688 187.356091,178.375482 C187.458105,178.234711 187.497341,178.080253 187.4738,177.912109 Z" id="路径" fill="#A7A7A7" fill-rule="nonzero"></path>
            <path d="M439.462966,249.874592 C439.2875,249.763642 439.181641,249.571984 439.181641,249.366221 C439.36121,234.304253 439.606622,219.206817 439.77422,204.097558 C439.777182,203.829756 439.963823,203.596928 440.229129,203.530074 C441.043178,203.32515 441.565924,203.126136 441.797369,202.933034 C451.545995,194.795157 461.528061,186.942993 471.743567,179.376541 C472.270304,178.986396 472.525692,179.114474 472.50973,179.760775 C472.298237,188.57648 472.274295,197.396125 472.437902,206.219712 C472.549634,212.182233 472.569587,228.822516 472.497759,256.14056 C472.489778,258.268625 472.529682,260.650875 472.617472,263.287311 C472.681319,265.277445 472.733194,267.26955 472.773099,269.263625 C472.78507,269.992685 472.479802,270.164112 471.857295,269.777908 L439.462966,249.874592 Z" id="路径" fill="#333333" fill-rule="nonzero"></path>
            <path d="M440.813954,406.846683 C440.581168,406.765507 440.425003,406.541821 440.425781,406.290679 L440.744431,332.206075 C440.743763,331.936642 440.928589,331.701383 441.190537,331.638241 C443.560112,331.052662 446.503252,327.213867 447.459193,326.368031 C455.110583,319.644718 463.018822,312.629601 471.18391,305.32268 C472.130195,304.470929 472.595613,304.689782 472.580164,305.979238 C472.128264,341.693637 472.539609,377.455354 472.481673,413.175667 C472.47781,414.697778 472.537677,416.911937 472.661274,419.818143 C472.746246,421.844995 472.782939,423.915224 472.771352,426.028829 C472.767489,426.774111 472.464292,426.933814 471.861759,426.507939 C462.240551,419.713646 452.312283,413.305796 442.076955,407.284389 C441.706166,407.071451 441.231092,407.000472 440.813954,406.846683 Z" id="路径" fill="#333333" fill-rule="nonzero"></path>
            <path d="M296.105469,344.491189 C281.969371,356.390056 267.694223,368.097768 253.280026,379.614326 C252.273382,380.418356 251.345076,381.080499 250.495109,381.600754 C250.313356,381.710437 250.205293,381.909789 250.213092,382.12101 C250.336474,387.294001 249.919324,393.070016 249.907574,397.604513 C249.833152,423.944402 249.754814,450.28429 249.672559,476.624179 L248.679625,478.663816 C248.60928,478.807765 248.483824,478.916771 248.332043,478.965822 C248.180263,479.014873 248.01519,478.999757 247.874702,478.923944 C244.942901,477.327706 242.110981,475.784677 239.273186,473.869192 C230.301523,467.809401 221.100721,462.240306 211.917546,456.523411 C203.739055,451.427275 195.484185,445.568493 187.064805,440.229965 C186.893596,440.123627 186.789159,439.93581 186.788664,439.733358 C186.643738,420.755868 186.592819,401.721229 186.635905,382.629441 C186.653531,372.904216 187.158811,362.434081 186.976675,352.253633 C189.279813,353.530623 192.000101,355.410636 193.633449,356.427498 C205.613292,363.882519 217.669515,371.201563 229.543602,378.822119 C233.793441,381.553458 238.323337,384.211884 243.133292,386.797394 C243.330546,386.905951 243.571489,386.889788 243.750204,386.75601 L247.921704,383.740895 C248.080344,383.625277 248.171288,383.437711 248.164212,383.240739 C248.157137,383.043766 248.052973,382.863296 247.886452,382.759505 L192.534758,347.594984 C192.969534,346.83825 193.339682,346.158371 194.085851,345.638116 C209.020997,335.298044 223.715253,324.603253 238.668025,314.292741 C241.159174,312.574323 243.538692,310.708104 245.806578,308.694086 C246.045481,308.478643 246.416122,308.502448 246.635002,308.747294 C246.819097,308.956185 246.993399,309.172958 247.157909,309.397613 C247.404673,309.736567 247.667106,310.004578 247.945206,310.201644 C257.698291,317.095025 267.529714,323.874108 277.439474,330.538892 C280.999938,332.93916 284.348889,335.688235 287.991607,338.01756 C290.858779,339.854218 293.5634,342.012095 296.105469,344.491189 Z" id="路径" fill="#A7A7A7" fill-rule="nonzero"></path>
            <path d="M248.828125,476.505859 C248.910982,450.168384 248.989894,423.830909 249.064859,397.493434 C249.076696,392.959353 249.4969,387.183867 249.372614,382.011349 C249.364758,381.800148 249.473613,381.600815 249.656696,381.491142 C250.512885,380.970934 251.447986,380.308852 252.461999,379.504895 C266.981713,367.989393 281.361359,356.282754 295.600937,344.384977 C296.555766,343.569198 297.386309,342.509078 298.092567,341.204618 C298.186891,341.030293 298.362385,340.914768 298.559967,340.896935 C298.757548,340.879102 298.950933,340.961334 299.075015,341.115946 C299.394607,341.517925 299.745763,341.923844 300.128484,342.333705 C315.962074,359.433556 327.867845,372.223961 335.845796,380.704919 C340.325996,385.469547 345.220481,390.127769 350.120884,395.572213 C352.302787,397.999848 354.559655,400.358516 356.89149,402.648217 C357.005679,402.761989 357.069459,402.916579 357.068359,403.076876 C357.067231,403.237174 357.001316,403.389574 356.885572,403.499466 L348.718233,411.273021 C348.487247,411.492855 348.123375,411.490241 347.89558,411.26711 L338.319671,401.779234 C338.10584,401.570354 337.77208,401.550149 337.538447,401.731943 C318.055201,416.977569 299.921341,433.878402 280.657074,449.508272 C271.037763,457.315326 261.509201,465.232726 252.071387,473.260474 C250.903497,474.253597 249.82241,475.335393 248.828125,476.505859 Z" id="路径" fill="#333333" fill-rule="nonzero"></path>
            <path d="M192.158736,347.115234 L247.306863,381.648061 C247.472771,381.749988 247.576552,381.927216 247.583984,382.12065 C247.590651,382.314084 247.500041,382.498281 247.341985,382.611822 L243.185827,385.572774 C243.007769,385.704148 242.767711,385.720021 242.571183,385.613414 C237.778918,383.074349 233.265681,380.46368 229.031472,377.781406 C217.201055,370.297746 205.189171,363.11018 193.253386,355.789082 C191.626045,354.790486 188.915762,352.944245 186.621094,351.690195 L192.158736,347.115234 Z" id="路径" fill="#333333" fill-rule="nonzero"></path>
            <path d="M415.522194,352.091797 C415.506589,384.323399 415.469527,416.555001 415.411007,448.786603 C415.399303,453.891022 415.732864,463.911026 415.381748,471.529297 C411.968121,469.688165 409.219664,468.014231 407.136376,466.507493 C392.022787,455.547253 376.694628,445.098439 361.151897,435.16105 C360.98455,435.05521 360.882881,434.867994 360.882708,434.665361 L360.800781,401.21814 C360.800781,400.195289 361.218219,399.351437 362.053095,398.686584 C366.773653,394.913839 371.324505,391.074214 375.705651,387.167711 C391.158652,373.378895 402.718168,362.806159 410.384198,355.449501 C411.862786,354.029312 413.317966,353.177592 414.749739,352.894341 C414.896205,352.864043 415.025708,352.779791 415.112559,352.658299 L415.522194,352.091797 Z" id="路径" fill="#A7A7A7" fill-rule="nonzero"></path>
        </g>
    </g>
</svg>