<svg width="70px" height="29px" viewBox="0 0 70 29" version="1.1" xmlns="http://www.w3.org/2000/svg" xmlns:xlink="http://www.w3.org/1999/xlink">
    <g id="页面-1" stroke="none" stroke-width="1" fill="none" fill-rule="evenodd">
        <g id="画板" transform="translate(-179.000000, -105.000000)" fill-rule="nonzero">
            <g id="编组" transform="translate(179.000000, 105.000000)">
                <path d="M66.9565217,0 L2.2826087,0 C1.02195942,0 0,1.02195942 0,2.2826087 L0,25.8695652 C0,27.1301739 1.02195942,28.1521739 2.2826087,28.1521739 L66.9565217,28.1521739 C68.2171304,28.1521739 69.2391304,27.1301739 69.2391304,25.8695652 L69.2391304,2.2826087 C69.2391304,1.02195942 68.2171304,0 66.9565217,0 Z" id="路径" fill="#FFFFFF"></path>
                <path d="M37.28,21.483871 L37.28,19.1397849 C37.7371429,18.7168459 37.9657143,18.1863799 37.9657143,17.5483871 C37.9657143,16.7526882 37.3866667,16.1003584 36.2285714,15.5913978 C35.9847619,15.4767025 35.7447619,15.3709677 35.5085714,15.2741935 C35.272381,15.1774194 35.0361905,15.0896057 34.8,15.0107527 C31.8438095,14.0358423 30.3657143,12.5483871 30.3657143,10.5483871 C30.3657143,8.7562724 31.1466667,7.4516129 32.7085714,6.6344086 L32.7085714,9.08602151 C32.4571429,9.43727599 32.3314286,9.84946237 32.3314286,10.3225806 C32.3542857,11.5053763 33.2990476,12.4265233 35.1657143,13.0860215 C35.6761905,13.2508961 36.1333333,13.4157706 36.5371429,13.5806452 C36.9409524,13.7455197 37.2914286,13.90681 37.5885714,14.0645161 C39.1961905,14.9892473 40,16.2043011 40,17.7096774 C40,18.6272401 39.7447619,19.390681 39.2342857,20 C38.6857143,20.6666667 38.0342857,21.1612903 37.28,21.483871 Z M36.0228571,11.9677419 C35.0933333,11.7096774 34.407619,11.3942652 33.9657143,11.0215054 L33.9657143,4.96774194 C33.9657143,4.70250896 34.0685714,4.47311828 34.2742857,4.27956989 C34.472381,4.09318996 34.712381,4 34.9942857,4 C35.2685714,4 35.512381,4.09318996 35.7257143,4.27956989 C35.9238095,4.48028674 36.0228571,4.70967742 36.0228571,4.96774194 L36.0228571,11.9677419 Z M34.9942857,24 C34.712381,24 34.472381,23.9032258 34.2742857,23.7096774 C34.0685714,23.5232975 33.9657143,23.297491 33.9657143,23.0322581 L33.9657143,16 C34.4685714,16.1577061 34.8914286,16.3100358 35.2342857,16.4569892 C35.5771429,16.6039427 35.84,16.7491039 36.0228571,16.8924731 L36.0228571,23.0322581 C36.0228571,23.297491 35.9238095,23.5232975 35.7257143,23.7096774 C35.52,23.9032258 35.2761905,24 34.9942857,24 Z M38.88,10.1827957 C38.4152381,10.1827957 38.087619,9.92114695 37.8971429,9.39784946 C37.8057143,9.14695341 37.6,8.90681004 37.28,8.67741935 L37.28,6.48387097 C38.6285714,7 39.44,7.81003584 39.7142857,8.91397849 C39.7447619,9 39.76,9.10752688 39.76,9.23655914 C39.76,9.86738351 39.4666667,10.1827957 38.88,10.1827957 Z M32.7085714,21.344086 C32.5638095,21.2795699 32.4304762,21.2150538 32.3085714,21.1505376 C32.1866667,21.0860215 32.0761905,21.0215054 31.9771429,20.9569892 C31.0171429,20.3691756 30.3847619,19.7491039 30.08,19.0967742 C30.0266667,19.0035842 30,18.8888889 30,18.7526882 C30,18.4516129 30.087619,18.1971326 30.2628571,17.9892473 C30.4304762,17.7885305 30.6666667,17.688172 30.9714286,17.688172 C31.2990476,17.688172 31.6038095,17.8602151 31.8857143,18.2043011 C32.1447619,18.5053763 32.4190476,18.7706093 32.7085714,19 L32.7085714,21.344086 Z" id="形状" fill="#000000"></path>
            </g>
        </g>
    </g>
</svg>