<?xml version="1.0" encoding="UTF-8"?>
<svg width="500px" height="500px" viewBox="0 0 500 500" version="1.1" xmlns="http://www.w3.org/2000/svg" xmlns:xlink="http://www.w3.org/1999/xlink">
    <title>Mog 睡猫</title>
    <defs>
        <linearGradient x1="0%" y1="50%" x2="97.3011364%" y2="50%" id="linearGradient-1">
            <stop stop-color="#9FD9F6" offset="0%"></stop>
            <stop stop-color="#FCDFB5" offset="100%"></stop>
        </linearGradient>
    </defs>
    <g id="页面-1" stroke="none" stroke-width="1" fill="none" fill-rule="evenodd">
        <g id="Mog备份-3" transform="translate(-84.000000, -84.000000)">
            <g id="编组" transform="translate(84.000000, 84.000000)">
                <rect id="矩形" fill="url(#linearGradient-1)" fill-rule="nonzero" x="0" y="0" width="500" height="500" rx="105"></rect>
                <rect id="矩形-2" stroke="#FFFFFF" stroke-width="5" x="30.73" y="30.73" width="438.54" height="438.54" rx="92.09"></rect>
                <g opacity="0.15" transform="translate(81.750000, 93.627646)" fill="#7B7A7B" stroke="#CBCCCC" stroke-width="2">
                    <path d="M20.06,0.00235411079 L94.31,0.00235411079 C100.79559,-0.126084948 106.162465,5.01717043 106.31,11.5023541 L106.31,11.5023541 C106.162465,17.9875378 100.79559,23.1307932 94.31,23.0023541 L20.06,23.0023541 C13.5765701,23.1252631 8.21296807,17.9851445 8.06,11.5023541 L8.06,11.5023541 C8.21296807,5.01956373 13.5765701,-0.120554845 20.06,0.00235411079 L20.06,0.00235411079 Z" id="矩形-3"></path>
                    <path d="M131.91,0.00235411079 L206.16,0.00235411079 C212.64559,-0.126084948 218.012465,5.01717043 218.16,11.5023541 L218.16,11.5023541 C218.012465,17.9875378 212.64559,23.1307932 206.16,23.0023541 L131.91,23.0023541 C125.42441,23.1307932 120.057535,17.9875378 119.91,11.5023541 L119.91,11.5023541 C120.057535,5.01717043 125.42441,-0.126084948 131.91,0.00235411079 Z" id="矩形备份-4"></path>
                    <path d="M243.75,0.00235411079 L318,0.00235411079 C324.48559,-0.126084948 329.852465,5.01717043 330,11.5023541 L330,11.5023541 C329.852465,17.9875378 324.48559,23.1307932 318,23.0023541 L243.75,23.0023541 C237.26441,23.1307932 231.897535,17.9875378 231.75,11.5023541 L231.75,11.5023541 C231.897535,5.01717043 237.26441,-0.126084948 243.75,0.00235411079 Z" id="矩形备份-6"></path>
                    <path d="M32.38,181.092354 L101.58,181.092354 C104.592035,181.129244 107.465868,182.361958 109.568487,184.518972 C111.671107,186.675986 112.830036,189.580359 112.79,192.592354 L112.79,192.592354 C112.830036,195.604349 111.671107,198.508722 109.568487,200.665736 C107.465868,202.82275 104.592035,204.055465 101.58,204.092354 L32.38,204.092354 C26.1097669,204.010036 21.092179,198.862645 21.1691069,192.592354 L21.1691069,192.592354 C21.092179,186.322064 26.1097669,181.174672 32.38,181.092354 L32.38,181.092354 Z" id="矩形-4"></path>
                    <path d="M135.25,181.092354 L204.45,181.092354 C210.720233,181.174672 215.737821,186.322064 215.660893,192.592354 L215.660893,192.592354 C215.737821,198.862645 210.720233,204.010036 204.45,204.092354 L135.25,204.092354 C128.979767,204.010036 123.962179,198.862645 124.039107,192.592354 L124.039107,192.592354 C123.962179,186.322064 128.979767,181.174672 135.25,181.092354 Z" id="矩形备份-4-2"></path>
                    <path d="M238.04,181.092354 L307.25,181.092354 C313.520233,181.174672 318.537821,186.322064 318.460893,192.592354 L318.460893,192.592354 C318.537821,198.862645 313.520233,204.010036 307.25,204.092354 L238.05,204.092354 C231.779767,204.010036 226.762179,198.862645 226.839105,192.592354 L226.839105,192.592354 C226.762152,186.325915 231.773692,181.180137 238.04,181.092354 Z" id="矩形备份-6-2"></path>
                    <path d="M196.19,36.2123541 L281.19,36.2123541 C284.23999,36.2123541 287.16506,37.4239578 289.321728,39.5806261 C291.478396,41.7372945 292.69,44.6623645 292.69,47.7123541 L292.69,47.7123541 C292.69,54.0636287 287.541275,59.2123541 281.19,59.2123541 L196.19,59.2123541 C189.838725,59.2123541 184.69,54.0636287 184.69,47.7123541 L184.69,47.7123541 C184.69,41.3610795 189.838725,36.2123541 196.19,36.2123541 Z" id="矩形备份-5"></path>
                    <path d="M64.69,36.2123541 L165.69,36.2123541 C172.041275,36.2123541 177.19,41.3610795 177.19,47.7123541 L177.19,47.7123541 C177.19,54.0636287 172.041275,59.2123541 165.69,59.2123541 L64.69,59.2123541 C58.3387254,59.2123541 53.19,54.0636287 53.19,47.7123541 L53.19,47.7123541 C53.19,41.3610795 58.3387254,36.2123541 64.69,36.2123541 Z" id="矩形备份-2"></path>
                    <path d="M42.16,72.4323541 L302.16,72.4323541 C308.511275,72.4323541 313.66,77.5810795 313.66,83.9323541 L313.66,83.9323541 C313.66,86.9823437 312.448396,89.9074137 310.291728,92.0640821 C308.13506,94.2207504 305.20999,95.4323541 302.16,95.4323541 L42.16,95.4323541 C39.1100104,95.4323541 36.1849404,94.2207504 34.028272,92.0640821 C31.8716037,89.9074137 30.66,86.9823437 30.66,83.9323541 L30.66,83.9323541 C30.66,80.8823645 31.8716037,77.9572945 34.028272,75.8006261 C36.1849404,73.6439578 39.1100104,72.4323541 42.16,72.4323541 Z" id="矩形备份-3"></path>
                    <path d="M41.37,253.53235 L301.37,253.53235 C304.420803,253.529698 307.347417,254.740448 309.504661,256.897693 C311.661906,259.054937 312.87,261.981551 312.87,265.03235 L312.87,265.03235 C312.87,271.383629 307.721275,276.53235 301.37,276.53235 L41.37,276.53235 C35.0187254,276.53235 29.87,271.383629 29.87,265.03235 L29.87,265.03235 C29.87,258.681079 35.0187254,253.53235 41.37,253.53235 L41.37,253.53235 Z" id="矩形备份-3-2"></path>
                    <path d="M22.94,108.652354 L159.94,108.652354 C165.7,108.652354 170.38,113.802354 170.38,120.152354 L170.38,120.152354 C170.38,126.502354 165.7,131.652354 159.94,131.652354 L22.94,131.652354 C17.17,131.652354 12.5,126.502354 12.5,120.152354 L12.5,120.152354 C12.5,113.802354 17.17,108.652354 22.94,108.652354 Z" id="矩形备份-7"></path>
                    <path d="M189.02,108.652354 L326.02,108.652354 C331.79,108.652354 336.46,113.802354 336.46,120.152354 L336.46,120.152354 C336.46,126.502354 331.79,131.652354 326.02,131.652354 L189.02,131.652354 C183.26,131.652354 178.58,126.502354 178.58,120.152354 L178.58,120.152354 C178.58,113.802354 183.25,108.652354 189.02,108.652354 Z" id="矩形备份-8"></path>
                    <path d="M73.97,217.312354 L137.97,217.312354 C144.321275,217.312354 149.47,222.461079 149.47,228.812354 L149.47,228.812354 C149.47,235.163629 144.321275,240.312354 137.97,240.312354 L73.97,240.312354 C67.6187254,240.312354 62.47,235.163629 62.47,228.812354 L62.47,228.812354 C62.47,222.461079 67.6187254,217.312354 73.97,217.312354 Z" id="矩形备份-12"></path>
                    <path d="M172.47,217.312354 L273.47,217.312354 C279.821275,217.312354 284.97,222.461079 284.97,228.812354 L284.97,228.812354 C284.97,235.163629 279.821275,240.312354 273.47,240.312354 L172.47,240.312354 C166.118725,240.312354 160.97,235.163629 160.97,228.812354 L160.97,228.812354 C160.97,222.461079 166.118725,217.312354 172.47,217.312354 Z" id="矩形备份-16"></path>
                    <path d="M221.33,289.742354 L325.6,289.742354 C331.6,289.742354 336.5,294.892354 336.5,301.242354 L336.5,301.242354 C336.5,307.592354 331.62,312.742354 325.6,312.742354 L221.33,312.742354 C215.33,312.742354 210.43,307.592354 210.43,301.242354 L210.43,301.242354 C210.43,294.892354 215.31,289.742354 221.33,289.742354 Z" id="矩形备份-15"></path>
                    <path d="M10.9,289.742354 L188.16,289.742354 C194.16,289.742354 199.06,294.892354 199.06,301.242354 L199.06,301.242354 C199.06,307.592354 194.18,312.742354 188.16,312.742354 L10.9,312.742354 C4.9,312.742354 0,307.592354 0,301.242354 L0,301.242354 C0,294.892354 4.88,289.742354 10.9,289.742354 Z" id="矩形备份-14"></path>
                    <path d="M32.3,144.872354 L174.12,144.872354 C180.12,144.872354 184.92,150.022354 184.92,156.372354 L184.92,156.372354 C184.92,162.722354 180.08,167.872354 174.12,167.872354 L32.3,167.872354 C26.3,167.872354 21.5,162.722354 21.5,156.372354 L21.5,156.372354 C21.5,150.022354 26.34,144.872354 32.3,144.872354 Z" id="矩形备份-9"></path>
                    <path d="M205.58,144.872354 L308.88,144.872354 C314.88,144.872354 319.68,150.022354 319.68,156.372354 L319.68,156.372354 C319.68,162.722354 314.85,167.872354 308.88,167.872354 L205.58,167.872354 C199.58,167.872354 194.78,162.722354 194.78,156.372354 L194.78,156.372354 C194.78,150.022354 199.61,144.872354 205.58,144.872354 Z" id="矩形备份-10"></path>
                </g>
                <g id="T" transform="translate(165.860000, 131.449884)" stroke="#FFFFFF" stroke-width="15">
                    <path d="M148.28,0.0101163492 C153.340942,-0.132556789 158.276427,1.59806781 162.14,4.87011635 C166,8.20011635 168.26,12.8701163 168.26,19.3301163 C168.26,27.0401163 165.26,31.7801163 160.61,34.5501163 C156.8902,36.8180273 152.616639,38.0153163 148.26,38.0101163 L104.14,38.0101163 L104.14,216.810116 C104.14,223.270116 102.48,227.910116 99.93,231.080116 C97.22,234.470116 92.36,237.080116 84.14,237.080116 C75.92,237.080116 70.97,234.350116 68.24,230.770116 C65.71,227.460116 64.14,222.880116 64.14,216.770116 L64.14,216.770116 L64.14,38.0101163 L20,38.0101163 C14.17,38.0101163 9.68,36.4801163 6.32,33.9201163 C2.59,31.0801163 0,26.4101163 0,19.0101163 C0,12.0101163 2.51,7.33011635 6.44,4.29011635 C10.3452139,1.36965132 15.1258341,-0.139275981 20,0.0101163492 L148.28,0.0101163492 Z" id="路径"></path>
                </g>
            </g>
        </g>
    </g>
</svg>